<svg fill="none" xmlns="http://www.w3.org/2000/svg" viewBox="0 0 1440 900">
  <g filter="url(#filter0_dd)" stroke="#FAFAFA" stroke-width="2">
    <path
      d="M103.783 579.001C50.043 483.375-90.614 400.365 68.619-16.673c74.973-159.378 201.696 47.15 318.468 75.04C503.858 86.258 714.842-203.942 813.7-253.082c98.857-49.142 292.59 128.83 313.82 210.511 21.23 81.681-110.13 246.372-100.85 338.014 9.29 91.642 374.87 124.182 398.09 283.559 23.22 159.378-28.53 278.912-199.04 280.904-170.52 1.993-292.595 264.965-341.692 346.645-49.097 81.68-731.148-119.53-578.549-239.065 152.598-119.534-147.954-292.857-201.696-388.484z"
    />
    <path
      d="M362.058 537.864c-30.94-55.072-111.917-102.877-20.245-343.051 43.162-91.786 116.118 27.154 183.344 43.217C592.382 254.092 713.848 86.964 770.76 58.663c56.913-28.3 168.448 74.194 180.671 121.234 12.222 47.041-63.406 141.887-58.059 194.664 5.348 52.778 215.808 71.517 229.178 163.303 13.37 91.786-16.42 160.625-114.59 161.773-98.163 1.148-168.445 152.595-196.71 199.635-28.266 47.041-420.927-68.839-333.075-137.679 87.852-68.839-85.179-168.657-116.117-223.729z"
    />
    <path
      d="M552.471 508.153c-14.128-25.193-51.106-47.061-9.244-156.932 19.709-41.989 53.025 12.422 83.723 19.77 30.699 7.348 86.166-69.107 112.155-82.053 25.988-12.946 76.92 33.94 82.503 55.459 5.581 21.52-28.955 64.908-26.513 89.051 2.441 24.144 98.549 32.716 104.654 74.705 6.104 41.99-7.501 73.48-52.327 74.006-44.828.524-76.921 69.805-89.828 91.325-12.908 21.519-192.215-31.492-152.098-62.983 40.118-31.492-38.897-77.154-53.025-102.348z"
    />
  </g>
  <defs>
    <filter
      id="filter0_dd"
      x="-31"
      y="-267.523"
      width="1487"
      height="1539.05"
      filterUnits="userSpaceOnUse"
      color-interpolation-filters="sRGB"
    >
      <feFlood flood-opacity="0" result="BackgroundImageFix" />
      <feColorMatrix
        in="SourceAlpha"
        values="0 0 0 0 0 0 0 0 0 0 0 0 0 0 0 0 0 0 127 0"
      />
      <feOffset dy="10" />
      <feGaussianBlur stdDeviation="5" />
      <feColorMatrix values="0 0 0 0 0 0 0 0 0 0 0 0 0 0 0 0 0 0 0.04 0" />
      <feBlend in2="BackgroundImageFix" result="effect1_dropShadow" />
      <feColorMatrix
        in="SourceAlpha"
        values="0 0 0 0 0 0 0 0 0 0 0 0 0 0 0 0 0 0 127 0"
      />
      <feOffset dy="20" />
      <feGaussianBlur stdDeviation="12.5" />
      <feColorMatrix values="0 0 0 0 0 0 0 0 0 0 0 0 0 0 0 0 0 0 0.1 0" />
      <feBlend in2="effect1_dropShadow" result="effect2_dropShadow" />
      <feBlend in="SourceGraphic" in2="effect2_dropShadow" result="shape" />
    </filter>
  </defs>
</svg>
